<svg width="78" height="78" viewBox="0 0 78 78" fill="none" xmlns="http://www.w3.org/2000/svg">
<g id="Frame" clip-path="url(#clip0_6_2825)">
<g id="Group">
<path id="Vector" opacity="0.03" d="M63.4636 11.4487C79.5216 27.5066 80.9341 52.2379 66.586 66.586C52.2379 80.9341 27.5066 79.5216 11.4487 63.4636C-4.60932 47.4056 -2.32949 26.3667 12.0186 12.0186C26.3667 -2.32949 47.4056 -4.60932 63.4636 11.4487Z" fill="#F7F7F7"/>
<path id="Vector_2" opacity="0.06" d="M63.0426 11.6472C78.9024 27.507 80.2901 51.9657 66.1154 66.1155C51.9408 80.2901 27.5069 78.9024 11.6472 63.0427C-4.21256 47.183 -2.03185 26.3175 12.1428 12.1429C26.3174 -2.03178 47.1829 -4.2125 63.0426 11.6472Z" fill="#EFEFEF"/>
<path id="Vector_3" opacity="0.1" d="M62.646 11.8701C78.3323 27.5564 79.6952 51.6929 65.6941 65.6941C51.6929 79.6953 27.5563 78.3323 11.8701 62.6461C-3.81619 46.9598 -1.7346 26.2678 12.2666 12.2666C26.2677 -1.73454 46.9597 -3.81613 62.646 11.8701Z" fill="#E6E6E6"/>
<path id="Vector_4" opacity="0.13" d="M62.2247 12.0684C77.7127 27.5564 79.0508 51.3956 65.2231 65.2233C51.3954 79.051 27.5563 77.7128 12.0683 62.2248C-3.41976 46.7368 -1.43729 26.2182 12.3904 12.3905C26.2181 -1.43717 46.7366 -3.41964 62.2247 12.0684Z" fill="#DEDEDE"/>
<path id="Vector_5" opacity="0.16" d="M61.8035 12.2914C77.0932 27.5812 78.4314 51.123 64.7772 64.7772C51.1229 78.4314 27.5811 77.0933 12.2913 61.8035C-2.99843 46.5137 -1.13987 26.1687 12.5144 12.5144C26.1686 -1.1398 46.5137 -2.99837 61.8035 12.2914Z" fill="#D6D6D6"/>
<path id="Vector_6" opacity="0.19" d="M61.4069 12.4896C76.4984 27.5811 77.8118 50.8503 64.331 64.3311C50.8503 77.8119 27.6058 76.4985 12.4895 61.407C-2.60199 46.3154 -0.842554 26.1438 12.6382 12.6383C26.119 -0.842493 46.2906 -2.60193 61.4069 12.4896Z" fill="#CECECE"/>
<path id="Vector_7" opacity="0.23" d="M60.9856 12.7126C75.9037 27.6307 77.1923 50.5777 63.885 63.885C50.5777 77.1923 27.6306 75.9037 12.7126 60.9857C-2.20551 46.0676 -0.545191 26.0695 12.7621 12.7622C26.0694 -0.54513 46.0676 -2.20545 60.9856 12.7126Z" fill="#C5C5C5"/>
<path id="Vector_8" opacity="0.26" d="M60.5644 12.9109C75.2842 27.6307 76.548 50.2804 63.4142 63.4142C50.2803 76.548 27.6059 75.2595 12.9108 60.5644C-1.809 45.8446 -0.247805 26.0199 12.886 12.8861C26.0199 -0.247744 45.8445 -1.80894 60.5644 12.9109Z" fill="#BDBDBD"/>
<path id="Vector_9" opacity="0.29" d="M60.1431 13.1339C74.6647 27.6555 75.9285 50.0078 62.9681 62.993C50.0077 75.9533 27.6306 74.6895 13.1091 60.168C-1.38773 45.6216 0.0495627 25.9704 13.0099 13.01C25.9703 0.0496547 45.6215 -1.38763 60.1431 13.1339Z" fill="#B5B5B5"/>
<path id="Vector_10" opacity="0.32" d="M59.7466 13.3322C74.0699 27.6555 75.3337 49.7352 62.522 62.5222C49.7351 75.3091 27.6554 74.07 13.3321 59.7467C-0.99124 45.3986 0.346927 25.9209 13.1338 13.134C25.9207 0.347049 45.3985 -0.991117 59.7466 13.3322Z" fill="#ADADAD"/>
<path id="Vector_11" opacity="0.35" d="M59.3253 13.5303C73.4504 27.6554 74.6894 49.4377 62.076 62.0512C49.4625 74.6646 27.6802 73.4503 13.5551 59.3005C-0.594765 45.2002 0.644277 25.8711 13.2577 13.2577C25.8712 0.644247 45.2002 -0.594793 59.3253 13.5303Z" fill="#A5A5A5"/>
<path id="Vector_12" opacity="0.39" d="M58.9041 13.7535C72.8557 27.7051 74.0699 49.1653 61.6052 61.6301C49.1652 74.0701 27.6802 72.8558 13.7286 58.929C-0.198231 44.9774 0.941687 25.8218 13.3817 13.3818C25.8464 0.941807 44.9772 -0.198112 58.9041 13.7535Z" fill="#9C9C9C"/>
<path id="Vector_13" opacity="0.42" d="M58.5075 13.9517C72.2608 27.7051 73.4503 48.8679 61.1838 61.1592C48.9173 73.4257 27.7297 72.2362 13.9763 58.4829C0.222939 44.7543 1.23895 25.797 13.5055 13.5057C25.7968 1.23916 44.7541 0.198363 58.5075 13.9517Z" fill="#949494"/>
<path id="Vector_14" opacity="0.45" d="M58.0864 14.1748C71.6415 27.73 72.831 48.6202 60.7132 60.7133C48.5954 72.8063 27.7299 71.6416 14.1748 58.0865C0.61967 44.5314 1.53656 25.7475 13.6296 13.6297C25.7474 1.53662 44.5313 0.61973 58.0864 14.1748Z" fill="#8C8C8C"/>
<path id="Vector_15" opacity="0.48" d="M57.665 14.3729C71.0219 27.7298 72.1866 48.3226 60.267 60.267C48.3227 72.1866 27.7546 71.0467 14.3729 57.665C1.01606 44.3082 1.83382 25.6977 13.7534 13.7534C25.6978 1.80902 44.3082 1.01604 57.665 14.3729Z" fill="#848484"/>
<path id="Vector_16" opacity="0.52" d="M57.2438 14.596C70.4272 27.7794 71.5671 48.0501 59.7962 59.821C48.0253 71.5919 27.7546 70.4272 14.5712 57.2686C1.4126 44.0852 2.13124 25.6482 13.8774 13.8773C25.6483 2.10643 44.0852 1.41257 57.2438 14.596Z" fill="#7B7B7B"/>
<path id="Vector_17" opacity="0.55" d="M56.8474 14.7942C69.8325 27.7793 70.9476 47.7527 59.375 59.3501C47.7776 70.9476 27.8042 69.8076 14.8191 56.8225C1.8339 43.8621 2.40386 25.5986 14.0013 14.0012C25.5987 2.40377 43.8622 1.80903 56.8474 14.7942Z" fill="#737373"/>
<path id="Vector_18" opacity="0.58" d="M56.4261 15.0174C69.2131 27.8043 70.3282 47.5051 58.9042 58.929C47.4803 70.353 27.8043 69.2379 14.9926 56.451C2.23046 43.6393 2.70129 25.5493 14.1253 14.1253C25.5492 2.70132 43.6392 2.23049 56.4261 15.0174Z" fill="#6B6B6B"/>
<path id="Vector_19" opacity="0.61" d="M56.0049 15.2157C68.5935 27.8043 69.7087 47.2077 58.4582 58.4582C47.2077 69.7087 27.8043 68.5936 15.2156 56.0049C2.62696 43.4163 2.99867 25.4997 14.2492 14.2492C25.4997 2.99873 43.4162 2.62702 56.0049 15.2157Z" fill="#636363"/>
<path id="Vector_20" opacity="0.65" d="M55.6081 15.4385C68.0233 27.8537 69.0889 46.935 58.0119 58.012C46.9348 69.089 27.8288 67.9987 15.4384 55.6082C3.02319 43.1931 3.29578 25.45 14.3728 14.3729C25.4498 3.29591 43.1929 3.02331 55.6081 15.4385Z" fill="#5A5A5A"/>
<path id="Vector_21" opacity="0.68" d="M55.1869 15.6366C67.4039 27.8536 68.4695 46.6622 57.5659 57.541C46.6623 68.4446 27.8537 67.379 15.6615 55.1621C3.41978 42.9699 3.59324 25.4003 14.4968 14.4967C25.4004 3.59316 42.97 3.41969 55.1869 15.6366Z" fill="#525252"/>
<path id="Vector_22" opacity="0.71" d="M54.7656 15.8349C66.7843 27.8536 67.8251 46.3649 57.095 57.095C46.3648 67.8251 27.8536 66.7843 15.8349 54.7656C3.84094 42.7469 3.8905 25.3508 14.6206 14.6207C25.3507 3.89058 42.7468 3.81624 54.7656 15.8349Z" fill="#4A4A4A"/>
<path id="Vector_23" opacity="0.74" d="M54.3445 16.0582C66.1649 27.8787 67.2057 46.0926 56.6491 56.6492C46.0925 67.2059 27.8785 66.1651 16.0581 54.3446C4.23763 42.5241 4.18807 25.3015 14.7447 14.7448C25.3013 4.18819 42.524 4.23775 54.3445 16.0582Z" fill="#424242"/>
<path id="Vector_24" opacity="0.77" d="M53.948 16.2562C65.5702 27.8784 66.5863 45.795 56.2031 56.1782C45.8199 66.5613 27.9034 65.5453 16.2812 53.9231C4.63417 42.3009 4.48549 25.2517 14.8687 14.8685C25.2518 4.48534 42.301 4.63402 53.948 16.2562Z" fill="#3A3A3A"/>
<path id="Vector_25" opacity="0.81" d="M53.5267 16.4793C64.9755 27.9281 65.9667 45.5472 55.757 55.7569C45.5473 65.9667 27.9281 64.9754 16.4794 53.5267C5.05543 42.0779 4.78284 25.2022 14.9925 14.9925C25.2022 4.78277 42.078 5.03058 53.5267 16.4793Z" fill="#313131"/>
<path id="Vector_26" opacity="0.84" d="M53.1052 16.6775C64.3557 27.928 65.3222 45.2498 55.286 55.286C45.2497 65.3223 27.9279 64.3558 16.6774 53.1053C5.42692 41.8548 5.07999 25.1525 15.1162 15.1163C25.1525 5.08005 41.8547 5.42698 53.1052 16.6775Z" fill="#292929"/>
<path id="Vector_27" opacity="0.87" d="M52.7087 16.9008C63.761 27.9531 64.7274 44.9775 54.8647 54.8403C45.0019 64.703 27.9775 63.7366 16.9252 52.6843C5.87297 41.6321 5.40213 25.1033 15.2649 15.2157C25.1277 5.35294 41.6565 5.82378 52.7335 16.876L52.7087 16.9008Z" fill="#212121"/>
<path id="Vector_28" opacity="0.9" d="M52.2876 17.0989C63.1416 27.9529 64.1081 44.6799 54.394 54.394C44.7047 64.0833 27.9776 63.1416 17.0989 52.2876C6.24484 41.4336 5.67488 25.0783 15.3642 15.3642C25.0535 5.67488 41.4088 6.24484 52.2876 17.0989Z" fill="#191919"/>
<path id="Vector_29" opacity="0.94" d="M51.8663 17.3217C62.5468 28.0023 63.4637 44.432 53.9478 53.9478C44.432 63.4636 28.0023 62.5468 17.3218 51.8662C6.66602 41.1857 5.97216 25.0038 15.488 15.4879C25.0038 5.97211 41.1857 6.64119 51.8663 17.3217Z" fill="#101010"/>
<path id="Vector_30" opacity="0.97" d="M51.4451 17.5201C61.9274 28.0024 62.8443 44.1347 53.4771 53.477C44.11 62.8194 27.9776 61.9025 17.5201 51.445C7.03784 40.9627 6.26963 24.9543 15.612 15.6119C24.9792 6.24478 40.9876 7.03777 51.4451 17.5201Z" fill="#080808"/>
<path id="Vector_31" d="M51.0485 17.7431C61.3325 28.0271 62.2246 43.8621 53.0557 53.0557C43.862 62.2247 28.0271 61.3325 17.743 51.0485C7.45897 40.7645 6.56686 24.9295 15.7358 15.7358C24.9295 6.54212 40.7644 7.45901 51.0485 17.7431Z" fill="black"/>
</g>
<g id="Group_2">
<path id="Vector_32" d="M24.8057 3.96484V64.3062C12.0435 60.2173 2.77551 48.2482 2.77551 34.1479C2.77551 20.0476 12.0435 8.05368 24.8057 3.96484Z" fill="#FF0000"/>
<g id="Group_3">
<path id="Vector_33" d="M64.3064 44.7047C59.9449 56.996 48.1988 65.818 34.4455 65.818C31.0753 65.818 27.8538 65.2976 24.8057 64.3064V44.7047H64.3312H64.3064Z" fill="black"/>
<path id="Vector_34" d="M64.3064 23.5913H24.8057V3.96488C27.8538 2.97364 31.1001 2.45325 34.4455 2.45325C48.2236 2.45325 59.9697 11.2752 64.3064 23.5665V23.5913Z" fill="#00732F"/>
<path id="Vector_35" d="M66.1154 34.1481C66.1154 37.8404 65.4711 41.4089 64.3064 44.7047H24.8057V23.5914H64.3312C65.4958 26.8873 66.1402 30.4309 66.1402 34.1481H66.1154Z" fill="white"/>
</g>
</g>
</g>
<defs>
<clipPath id="clip0_6_2825">
<rect width="77.0684" height="77.0684" fill="white"/>
</clipPath>
</defs>
</svg>
